<svg viewBox="0 0 800 400" xmlns="http://www.w3.org/2000/svg">
  <path d="M 80 200 Q 110 140, 140 200 Q 170 260, 200 200 Q 230 140, 260 200" stroke="#b8792a" stroke-width="2.5" fill="none" />
  <circle cx="400" cy="200" r="70" fill="none" stroke="#4a4740" stroke-width="2.5" />
  <circle cx="400" cy="200" r="55" fill="none" stroke="#4a4740" stroke-width="1" opacity="0.3" />
  <circle cx="400" cy="200" r="6" fill="#4a4740" />
  <line x1="400" y1="200" x2="400" y2="140" stroke="#4a4740" stroke-width="3" stroke-linecap="round" />
  <line x1="340" y1="240" x2="345" y2="235" stroke="#4a4740" stroke-width="1.5" opacity="0.4" />
  <line x1="335" y1="200" x2="342" y2="200" stroke="#4a4740" stroke-width="1.5" opacity="0.4" />
  <line x1="340" y1="160" x2="345" y2="165" stroke="#4a4740" stroke-width="1.5" opacity="0.4" />
  <line x1="370" y1="137" x2="374" y2="143" stroke="#4a4740" stroke-width="1.5" opacity="0.4" />
  <line x1="430" y1="137" x2="426" y2="143" stroke="#4a4740" stroke-width="1.5" opacity="0.4" />
  <line x1="460" y1="160" x2="455" y2="165" stroke="#4a4740" stroke-width="1.5" opacity="0.4" />
  <line x1="465" y1="200" x2="458" y2="200" stroke="#4a4740" stroke-width="1.5" opacity="0.4" />
  <line x1="460" y1="240" x2="455" y2="235" stroke="#4a4740" stroke-width="1.5" opacity="0.4" />
  <rect x="560" y="260" width="20" height="40" rx="2" fill="#5a8a4a" opacity="0.9" />
  <rect x="590" y="230" width="20" height="70" rx="2" fill="#5a8a4a" opacity="0.9" />
  <rect x="620" y="200" width="20" height="100" rx="2" fill="#5a8a4a" opacity="0.9" />
  <rect x="650" y="170" width="20" height="130" rx="2" fill="#5a8a4a" opacity="0.9" />
  <rect x="680" y="190" width="20" height="110" rx="2" fill="#5a8a4a" opacity="0.8" />
  <rect x="710" y="220" width="20" height="80" rx="2" fill="#5a8a4a" opacity="0.6" />
  <line x1="270" y1="200" x2="330" y2="200" stroke="#a09d93" stroke-width="1.5" stroke-dasharray="4,4" />
  <line x1="470" y1="200" x2="550" y2="200" stroke="#a09d93" stroke-width="1.5" stroke-dasharray="4,4" />
</svg>
