<svg viewBox="0 0 800 400" xmlns="http://www.w3.org/2000/svg">
  <rect x="290" y="60" width="16" height="140" rx="3" fill="none" stroke="#4a4740" stroke-width="2" />
  <line x1="292" y1="90" x2="304" y2="90" stroke="#4a4740" stroke-width="1" opacity="0.4" />
  <line x1="292" y1="115" x2="304" y2="115" stroke="#4a4740" stroke-width="1" opacity="0.4" />
  <line x1="292" y1="138" x2="304" y2="138" stroke="#4a4740" stroke-width="1" opacity="0.4" />
  <line x1="292" y1="158" x2="304" y2="158" stroke="#4a4740" stroke-width="1" opacity="0.4" />
  <line x1="292" y1="175" x2="304" y2="175" stroke="#4a4740" stroke-width="1" opacity="0.4" />
  <rect x="286" y="45" width="24" height="18" rx="4" fill="none" stroke="#4a4740" stroke-width="2" />
  <circle cx="289" cy="50" r="2.5" fill="#4a4740" opacity="0.5" />
  <circle cx="289" cy="58" r="2.5" fill="#4a4740" opacity="0.5" />
  <circle cx="307" cy="50" r="2.5" fill="#4a4740" opacity="0.5" />
  <circle cx="307" cy="58" r="2.5" fill="#4a4740" opacity="0.5" />
  <ellipse cx="298" cy="225" rx="50" ry="35" fill="none" stroke="#4a4740" stroke-width="2" />
  <ellipse cx="298" cy="305" rx="70" ry="55" fill="none" stroke="#4a4740" stroke-width="2" />
  <path d="M 248 225 Q 240 265, 228 305" stroke="#4a4740" stroke-width="2" fill="none" />
  <path d="M 348 225 Q 356 265, 368 305" stroke="#4a4740" stroke-width="2" fill="none" />
  <circle cx="298" cy="280" r="22" fill="none" stroke="#4a4740" stroke-width="1.5" />
  <rect x="278" y="320" width="40" height="5" rx="2" fill="#4a4740" opacity="0.5" />
  <line x1="295" y1="200" x2="288" y2="320" stroke="#4a4740" stroke-width="0.5" opacity="0.3" />
  <line x1="298" y1="200" x2="298" y2="320" stroke="#4a4740" stroke-width="0.5" opacity="0.3" />
  <line x1="301" y1="200" x2="308" y2="320" stroke="#4a4740" stroke-width="0.5" opacity="0.3" />
  <path d="M 380 250 Q 400 230, 380 210" stroke="#b8792a" stroke-width="2" fill="none" />
  <path d="M 410 270 Q 445 230, 410 190" stroke="#b8792a" stroke-width="2" fill="none" opacity="0.8" />
  <path d="M 440 290 Q 490 230, 440 170" stroke="#b8792a" stroke-width="2" fill="none" opacity="0.6" />
  <path d="M 470 310 Q 535 230, 470 150" stroke="#b8792a" stroke-width="2" fill="none" opacity="0.4" />
  <path d="M 500 325 Q 580 230, 500 135" stroke="#b8792a" stroke-width="2" fill="none" opacity="0.25" />
  <path d="M 216 250 Q 196 230, 216 210" stroke="#b8792a" stroke-width="1.5" fill="none" opacity="0.3" />
  <path d="M 190 270 Q 160 230, 190 190" stroke="#b8792a" stroke-width="1.5" fill="none" opacity="0.2" />
</svg>
