<svg viewBox="0 0 800 400" xmlns="http://www.w3.org/2000/svg">
  <circle cx="200" cy="80" r="8" fill="#4a4740" />
  <circle cx="200" cy="130" r="8" fill="#4a4740" />
  <circle cx="200" cy="180" r="8" fill="#4a4740" />
  <circle cx="200" cy="230" r="8" fill="#4a4740" />
  <circle cx="200" cy="280" r="8" fill="#4a4740" />
  <circle cx="200" cy="330" r="8" fill="#4a4740" />
  <circle cx="600" cy="80" r="8" fill="#4a4740" />
  <circle cx="600" cy="130" r="8" fill="#4a4740" />
  <circle cx="600" cy="180" r="8" fill="#4a4740" />
  <circle cx="600" cy="230" r="8" fill="#4a4740" />
  <circle cx="600" cy="280" r="8" fill="#4a4740" />
  <circle cx="600" cy="330" r="8" fill="#4a4740" />
  <line x1="208" y1="80" x2="592" y2="80" stroke="#b8792a" stroke-width="2" />
  <line x1="208" y1="130" x2="592" y2="180" stroke="#b8792a" stroke-width="2" />
  <line x1="208" y1="180" x2="592" y2="130" stroke="#b8792a" stroke-width="2" />
  <line x1="208" y1="230" x2="592" y2="280" stroke="#b8792a" stroke-width="2" />
  <line x1="208" y1="280" x2="592" y2="330" stroke="#b8792a" stroke-width="2" />
  <line x1="208" y1="330" x2="592" y2="230" stroke="#b8792a" stroke-width="2" />
  <circle cx="400" cy="80" r="4" fill="#b8792a" />
  <circle cx="400" cy="155" r="4" fill="#b8792a" />
  <circle cx="400" cy="155" r="4" fill="#b8792a" />
  <circle cx="400" cy="255" r="4" fill="#b8792a" />
  <circle cx="400" cy="305" r="4" fill="#b8792a" />
  <circle cx="400" cy="280" r="4" fill="#b8792a" />
  <line x1="200" y1="55" x2="200" y2="355" stroke="#a09d93" stroke-width="0.5" opacity="0.2" />
  <line x1="600" y1="55" x2="600" y2="355" stroke="#a09d93" stroke-width="0.5" opacity="0.2" />
  <line x1="175" y1="80" x2="625" y2="80" stroke="#a09d93" stroke-width="0.5" opacity="0.1" />
  <line x1="175" y1="130" x2="625" y2="130" stroke="#a09d93" stroke-width="0.5" opacity="0.1" />
  <line x1="175" y1="180" x2="625" y2="180" stroke="#a09d93" stroke-width="0.5" opacity="0.1" />
  <line x1="175" y1="230" x2="625" y2="230" stroke="#a09d93" stroke-width="0.5" opacity="0.1" />
  <line x1="175" y1="280" x2="625" y2="280" stroke="#a09d93" stroke-width="0.5" opacity="0.1" />
  <line x1="175" y1="330" x2="625" y2="330" stroke="#a09d93" stroke-width="0.5" opacity="0.1" />
</svg>
