<svg viewBox="0 0 800 400" xmlns="http://www.w3.org/2000/svg">
  <line x1="80" y1="250" x2="720" y2="250" stroke="#4a4740" stroke-width="2" />
  <line x1="180" y1="250" x2="180" y2="232" stroke="#a85a4a" stroke-width="1.5" />
  <line x1="195" y1="250" x2="195" y2="240" stroke="#a85a4a" stroke-width="1.5" />
  <line x1="280" y1="250" x2="280" y2="228" stroke="#a85a4a" stroke-width="1.5" />
  <line x1="290" y1="250" x2="290" y2="238" stroke="#a85a4a" stroke-width="1.5" />
  <line x1="300" y1="250" x2="300" y2="244" stroke="#a85a4a" stroke-width="1.5" />
  <line x1="420" y1="250" x2="420" y2="218" stroke="#a85a4a" stroke-width="2" />
  <line x1="430" y1="250" x2="430" y2="230" stroke="#a85a4a" stroke-width="1.5" />
  <line x1="438" y1="250" x2="438" y2="242" stroke="#a85a4a" stroke-width="1.5" />
  <line x1="540" y1="250" x2="540" y2="235" stroke="#a85a4a" stroke-width="1.5" />
  <line x1="548" y1="250" x2="548" y2="243" stroke="#a85a4a" stroke-width="1.5" />
  <line x1="630" y1="250" x2="630" y2="240" stroke="#a85a4a" stroke-width="1.5" />
  <line x1="660" y1="250" x2="660" y2="236" stroke="#a85a4a" stroke-width="1.5" />
  <circle cx="425" cy="190" r="50" fill="none" stroke="#b8792a" stroke-width="2.5" />
  <line x1="460" y1="225" x2="500" y2="270" stroke="#b8792a" stroke-width="3" stroke-linecap="round" />
  <line x1="415" y1="210" x2="415" y2="170" stroke="#a85a4a" stroke-width="2.5" opacity="0.6" />
  <line x1="425" y1="210" x2="425" y2="155" stroke="#a85a4a" stroke-width="2.5" opacity="0.6" />
  <line x1="435" y1="210" x2="435" y2="180" stroke="#a85a4a" stroke-width="2.5" opacity="0.6" />
  <line x1="80" y1="200" x2="720" y2="200" stroke="#a09d93" stroke-width="0.5" opacity="0.3" />
  <line x1="80" y1="150" x2="720" y2="150" stroke="#a09d93" stroke-width="0.5" opacity="0.3" />
  <line x1="80" y1="300" x2="720" y2="300" stroke="#a09d93" stroke-width="0.5" opacity="0.3" />
</svg>
